# xmcd CD database file
#
# Track frame offsets:
#	150
#	13440
#	27097
#	36395
#	48570
#	60585
#	72627
#	81957
#	91330
#	103427
#	114072
#	127447
#	137497
#	147160
#	159745
#	166537
#
# Disc length: 2414 seconds
#
# Revision: 2
# Processed by: cddbd v1.4PL0 Copyright (c) Steve Scherf et al.
# Submitted via: CDex 1.40Beta9
#
DISCID=e6096c10
DTITLE=Varios - 16 Tangos Orquestados
DYEAR=1992
DGENRE=Tango
TTITLE0=José Basso - Instrumental - La Cumparsita
TTITLE1=Héctor Stamponi - Instrumental - Azabache
TTITLE2=Fulvio Salamanca - Instrumental - Adiós Muchachos
TTITLE3=Alfredo De Angelis - Instrumental - El Amanecer
TTITLE4=Juan Cambareri - Instrumental - Sentimiento Gaucho
TTITLE5=Fulvio Salamanca - Instrumental - A Media Luz
TTITLE6=Armando Pontier - Instrumental - Nueve De Julio
TTITLE7=Juan Cambareri - Instrumental - Milonga De Mis Amores
TTITLE8=Fulvio Salamanca - Instrumental - El Choclo
TTITLE9=Lito Escarso - Instrumental - Por La Vuelta
TTITLE10=Leopoldo Federico - Instrumental - Arrabal Tanguero
TTITLE11=Fulvio Salamanca - Instrumental - Yira Yira
TTITLE12=Armando Pontier - Instrumental - El Requiebro
TTITLE13=Los Solistas - Instrumental - Felicia
TTITLE14=Juan Cambareri - Instrumental - El Esquinazo
TTITLE15=José Basso - Instrumental - Milonga Con Variaciones
EXTD=YEAR: 1992 ID3G: 113
EXTT0=
EXTT1=
EXTT2=
EXTT3=
EXTT4=
EXTT5=
EXTT6=
EXTT7=
EXTT8=
EXTT9=
EXTT10=
EXTT11=
EXTT12=
EXTT13=
EXTT14=
EXTT15=
PLAYORDER=
